<svg width="47" height="41" viewBox="0 0 47 41" fill="none" xmlns="http://www.w3.org/2000/svg">
<path d="M2.96455 14.991C5.04567 12.9441 5.87739 14.3447 8.27052 12.6015C11.3962 10.3248 9.39521 5.70151 12.0122 2.94607C14.3 0.537091 18.137 -0.566924 21.2943 1.87062C22.3706 2.7016 23.0961 4.96212 24.7948 4.4986C26.0957 4.14362 27.3175 2.42714 28.5297 1.87062C32.3886 0.0990993 34.0769 0.975092 36.9711 3.82207C39.8652 6.66905 38.7521 10.3512 39.8652 12.6015C40.8671 14.6269 42.7545 13.3059 44.2065 14.991C46.1876 17.29 46.7389 19.5899 45.8948 22.6559C45.0506 25.7219 43.9653 27.0163 42.0359 29.4449C38.8398 33.4677 41.5557 34.745 38.177 38.6428C36.976 40.0282 32.5905 40.7986 30.7004 40.3948C26.6003 39.5188 25.6356 39.5188 19.606 39.5188C18.0031 39.5188 13.0941 41.0518 9.23526 38.6428C5.37637 36.2338 8.52987 31.7004 4.89398 28.3499C3.44689 27.0163 1.75864 22.6559 1.75864 22.6559C1.75864 22.6559 0.0894542 17.8187 2.96455 14.991Z" fill="white" stroke="#A69C9C"/>
<path d="M29.8691 35.5393C33.4898 36.2702 37.071 33.7068 36.2636 30.1025V30.1025C35.7687 27.8933 33.2387 25.8435 32.0429 24.0946V24.0946C30.1672 21.3516 27.9253 18.7293 24.6091 18.5162C24.4015 18.5028 24.1933 18.4957 23.9849 18.495C23.7365 18.4941 23.4885 18.5021 23.2411 18.5191C20.0081 18.7409 18.1217 21.4298 16.2777 24.0946V24.0946C15.0735 25.8347 12.1566 27.807 11.6512 30.0126V30.0126C10.8257 33.6153 14.3941 36.2008 18.0223 35.4956L21.9751 34.7273C23.2772 34.4742 24.6163 34.479 25.9166 34.7415L29.8691 35.5393Z" fill="#AC9E9F"/>
<path d="M13.0941 21.1229C13.0941 22.8906 10.9526 24.6606 8.95654 24.6606C6.9605 24.6606 5.13513 22.8906 5.13513 21.1229C5.13513 19.3552 6.9605 17.3999 8.95654 17.3999C10.9526 17.3999 13.0941 19.3552 13.0941 21.1229Z" fill="#AC9E9F"/>
<path d="M13.0941 21.1229C13.0941 22.8906 10.9526 24.6606 8.95654 24.6606C6.9605 24.6606 5.13513 22.8906 5.13513 21.1229C5.13513 19.3552 6.9605 17.3999 8.95654 17.3999C10.9526 17.3999 13.0941 19.3552 13.0941 21.1229Z" fill="#AC9E9F"/>
<path d="M22.259 10.83C22.259 15.2099 19.2319 15.8669 17.2359 15.8669C15.2398 15.8669 12.6392 14.5529 12.6392 11.268C12.6392 8.94322 14.0588 6.23101 17.2359 5.79301C20.3296 5.79301 22.0178 8.28622 22.259 10.83Z" fill="#AC9E9F"/>
<path d="M22.259 10.83C22.259 15.2099 19.2319 15.8669 17.2359 15.8669C15.2398 15.8669 12.6392 14.5529 12.6392 11.268C12.6392 8.94322 14.0588 6.23101 17.2359 5.79301C20.3296 5.79301 22.0178 8.28622 22.259 10.83Z" fill="#AC9E9F"/>
<path d="M34.8004 21.1229C34.8004 22.8906 36.9419 24.6606 38.938 24.6606C40.934 24.6606 42.7594 22.8906 42.7594 21.1229C42.7594 19.3552 40.934 17.3999 38.938 17.3999C36.9419 17.3999 34.8004 19.3552 34.8004 21.1229Z" fill="#F6AFB5"/>
<path d="M34.8004 21.1229C34.8004 22.8906 36.9419 24.6606 38.938 24.6606C40.934 24.6606 42.7594 22.8906 42.7594 21.1229C42.7594 19.3552 40.934 17.3999 38.938 17.3999C36.9419 17.3999 34.8004 19.3552 34.8004 21.1229Z" fill="#AC9E9F"/>
<path d="M25.6355 10.83C25.6355 15.2099 28.6626 15.8669 30.6586 15.8669C32.6547 15.8669 35.2553 14.5529 35.2553 11.268C35.2553 8.94322 33.8357 6.23101 30.6586 5.79301C27.5649 5.79301 25.8767 8.28622 25.6355 10.83Z" fill="#F6AFB5"/>
<path d="M25.6355 10.83C25.6355 15.2099 28.6626 15.8669 30.6586 15.8669C32.6547 15.8669 35.2553 14.5529 35.2553 11.268C35.2553 8.94322 33.8357 6.23101 30.6586 5.79301C27.5649 5.79301 25.8767 8.28622 25.6355 10.83Z" fill="#AC9E9F"/>
</svg>
