<svg width="47" height="42" viewBox="0 0 47 42" fill="none" xmlns="http://www.w3.org/2000/svg">
<path d="M2.68775 15.5586C4.76887 13.5117 5.6006 14.9123 7.99373 13.1691C11.1194 10.8924 9.11842 6.26913 11.7354 3.51368C14.0233 1.1047 17.8602 0.000687957 21.0175 2.43823C22.0939 3.26921 22.8193 5.52973 24.518 5.06621C25.8189 4.71123 27.0407 2.99475 28.2529 2.43823C32.1118 0.666711 33.8001 1.5427 36.6943 4.38968C39.5884 7.23666 38.4753 10.9188 39.5884 13.1691C40.5903 15.1946 42.4777 13.8735 43.9297 15.5586C45.9108 17.8576 46.4621 20.1576 45.618 23.2235C44.7738 26.2895 43.6885 27.584 41.7591 30.0125C38.563 34.0353 41.2789 35.3126 37.9002 39.2104C36.6992 40.5958 32.3137 41.3662 30.4236 40.9624C26.3235 40.0864 25.3588 40.0864 19.3292 40.0864C17.7263 40.0864 12.8173 41.6194 8.95846 39.2104C5.09958 36.8014 8.25308 32.268 4.61719 28.9175C3.1701 27.584 1.48184 23.2235 1.48184 23.2235C1.48184 23.2235 -0.18734 18.3863 2.68775 15.5586Z" fill="white" stroke="#A69C9C"/>
<path d="M29.5924 36.107C33.2131 36.8379 36.7943 34.2745 35.9869 30.6701V30.6701C35.492 28.4609 32.962 26.4111 31.7662 24.6623V24.6623C29.8905 21.9192 27.6486 19.297 24.3324 19.0838C24.1248 19.0705 23.9166 19.0634 23.7082 19.0626C23.4598 19.0617 23.2118 19.0698 22.9644 19.0868C19.7314 19.3085 17.845 21.9975 16.001 24.6623V24.6623C14.7968 26.4024 11.8799 28.3747 11.3745 30.5802V30.5802C10.549 34.1829 14.1174 36.7685 17.7456 36.0632L21.6984 35.2949C23.0005 35.0418 24.3396 35.0466 25.6399 35.3091L29.5924 36.107Z" fill="#F6AFB5"/>
<path d="M12.8173 21.6905C12.8173 23.4582 10.6757 25.2282 8.67968 25.2282C6.68365 25.2282 4.85828 23.4582 4.85828 21.6905C4.85828 19.9228 6.68365 17.9675 8.67968 17.9675C10.6757 17.9675 12.8173 19.9228 12.8173 21.6905Z" fill="#F6AFB5"/>
<path d="M12.8173 21.6905C12.8173 23.4582 10.6757 25.2282 8.67968 25.2282C6.68365 25.2282 4.85828 23.4582 4.85828 21.6905C4.85828 19.9228 6.68365 17.9675 8.67968 17.9675C10.6757 17.9675 12.8173 19.9228 12.8173 21.6905Z" fill="#F6AFB5"/>
<path d="M21.9821 11.3976C21.9821 15.7775 18.955 16.4345 16.959 16.4345C14.963 16.4345 12.3623 15.1206 12.3623 11.8356C12.3623 9.51083 13.782 6.79862 16.959 6.36063C20.0527 6.36063 21.741 8.85384 21.9821 11.3976Z" fill="#F6AFB5"/>
<path d="M21.9821 11.3976C21.9821 15.7775 18.955 16.4345 16.959 16.4345C14.963 16.4345 12.3623 15.1206 12.3623 11.8356C12.3623 9.51083 13.782 6.79862 16.959 6.36063C20.0527 6.36063 21.741 8.85384 21.9821 11.3976Z" fill="#F6AFB5"/>
<path d="M34.5237 21.6905C34.5237 23.4582 36.6652 25.2282 38.6613 25.2282C40.6573 25.2282 42.4827 23.4582 42.4827 21.6905C42.4827 19.9228 40.6573 17.9675 38.6613 17.9675C36.6652 17.9675 34.5237 19.9228 34.5237 21.6905Z" fill="#F6AFB5"/>
<path d="M34.5237 21.6905C34.5237 23.4582 36.6652 25.2282 38.6613 25.2282C40.6573 25.2282 42.4827 23.4582 42.4827 21.6905C42.4827 19.9228 40.6573 17.9675 38.6613 17.9675C36.6652 17.9675 34.5237 19.9228 34.5237 21.6905Z" fill="#F6AFB5"/>
<path d="M25.3588 11.3976C25.3588 15.7775 28.3859 16.4345 30.3819 16.4345C32.378 16.4345 34.9786 15.1206 34.9786 11.8356C34.9786 9.51083 33.559 6.79862 30.3819 6.36063C27.2882 6.36063 25.6 8.85384 25.3588 11.3976Z" fill="#F6AFB5"/>
<path d="M25.3588 11.3976C25.3588 15.7775 28.3859 16.4345 30.3819 16.4345C32.378 16.4345 34.9786 15.1206 34.9786 11.8356C34.9786 9.51083 33.559 6.79862 30.3819 6.36063C27.2882 6.36063 25.6 8.85384 25.3588 11.3976Z" fill="#F6AFB5"/>
</svg>
